<svg width="96" height="96" viewBox="0 0 96 96" xmlns="http://www.w3.org/2000/svg" role="img" aria-label="BriBa mascot">
  <defs>
    <linearGradient id="body" x1="18" y1="15" x2="78" y2="84" gradientUnits="userSpaceOnUse">
      <stop stop-color="#36d6c3"/>
      <stop offset="0.55" stop-color="#25a6d9"/>
      <stop offset="1" stop-color="#4f64f4"/>
    </linearGradient>
    <filter id="shadow" x="-20%" y="-20%" width="140%" height="140%">
      <feDropShadow dx="0" dy="5" stdDeviation="5" flood-color="#102033" flood-opacity="0.18"/>
    </filter>
  </defs>
  <path d="M23 37c0-15 11-25 26-25 16 0 28 11 28 27v20c0 16-11 27-28 27-16 0-27-10-27-26V37z" fill="url(#body)" filter="url(#shadow)"/>
  <path d="M19 43c-7 1-12-3-13-9-1-7 4-12 11-11 5 1 9 5 10 10" fill="#36d6c3"/>
  <path d="M77 43c7 1 12-3 13-9 1-7-4-12-11-11-5 1-9 5-10 10" fill="#4f64f4"/>
  <path d="M28 50c0-10 8-17 20-17s20 7 20 17-8 17-20 17-20-7-20-17z" fill="#f8fbff"/>
  <circle cx="39" cy="48" r="5" fill="#102033"/>
  <circle cx="58" cy="47" r="4" fill="#102033"/>
  <circle cx="41" cy="46" r="1.5" fill="#fff"/>
  <circle cx="59" cy="45" r="1.2" fill="#fff"/>
  <path d="M41 58c5 4 11 4 16 0" fill="none" stroke="#102033" stroke-width="3" stroke-linecap="round"/>
  <rect x="31" y="68" width="34" height="11" rx="5.5" fill="#102033" opacity="0.9"/>
  <rect x="37" y="72" width="8" height="2" rx="1" fill="#f8fbff"/>
  <rect x="49" y="72" width="11" height="2" rx="1" fill="#f8fbff"/>
  <path d="M32 22c5-7 16-8 21-1" fill="none" stroke="#102033" stroke-width="5" stroke-linecap="round"/>
</svg>